<svg id="Capa_1" enable-background="new 0 0 495.892 495.892" height="512" viewBox="0 0 495.892 495.892" width="512" xmlns="http://www.w3.org/2000/svg"><g><path d="m419.079 298.097-38.451-21.661-23.047 98.784 98.047 98.784 22.776 12.831c6.111 3.443 13.182-2.639 10.693-9.196l-66.687-175.67c-.623-1.64-1.802-3.011-3.331-3.872z" fill="#ffbe3b"/><path d="m334.696 250.56-41.25 88.22 78.75 88.22 83.431 47.004-74.999-197.568z" fill="#ffd45e"/><path d="m334.696 250.56-86.75 48.87-45 98.231 45 98.231c1.269 0 2.539-.322 3.681-.966l120.569-67.926z" fill="#ffe88c"/><path d="m161.196 250.56-78.728 88.22 41.228 88.22 120.569 67.926c1.143.644 2.412.966 3.681.966v-196.462z" fill="#ffd45e"/><path d="m161.196 250.56-37.5 176.44-106.207 59.835c-6.111 3.443-13.182-2.639-10.693-9.196l66.686-175.669c.623-1.641 1.801-3.011 3.331-3.873z" fill="#ffe88c"/><path d="m247.946 0v375c5.344 0 10.022-2.803 12.679-7.01.018 0 101.595-161.08 101.595-161.08 13.121-20.821 20.726-45.476 20.726-71.91 0-74.558-60.442-135-135-135z" fill="#fc5e32"/><path d="m257.807 367.99c.014 0 79.019-161.08 79.019-161.08 10.205-20.821 16.12-45.476 16.12-71.91 0-74.558-47.01-135-105-135-74.559 0-135 60.442-135 135 0 26.434 7.604 51.09 20.735 71.91-.01 0 101.567 161.08 101.567 161.08 2.675 4.207 7.354 7.01 12.697 7.01 4.157 0 7.796-2.803 9.862-7.01z" fill="#ff7d4a"/><circle cx="247.946" cy="135" fill="#fff" r="75"/><path d="m247.946 90v90c24.853 0 45-20.147 45-45s-20.147-45-45-45z" fill="#ff7d4a"/><path d="m262.946 135c0-24.853-6.716-45-15-45-24.853 0-45 20.147-45 45s20.147 45 45 45c8.284 0 15-20.147 15-45z" fill="#ff9a6b"/></g></svg>