<svg id="Capa_1" enable-background="new 0 0 512 512" height="512" viewBox="0 0 512 512" width="512" xmlns="http://www.w3.org/2000/svg"><g><g><path d="m251.13 161.979-37.19-.01h-6.49v.01l.02 45.9-38-.02-33.23-.01-.01-45.91-43.68-.02c-23.85-.01-37.4-27.32-22.98-46.29l79.26-104.26c1.2-1.58 2.52-2.99 3.94-4.24 12.21-10.76 31.62-9.34 41.96 4.26l79.34 104.31c14.44 19 .91 46.29-22.94 46.28z" fill="#93ecdd"/><g fill="#00ddc4"><path d="m207.45 161.979.02 45.9-38-.02-.02-45.89z"/><path d="m251.13 161.979-37.19-.01c23.34-.6 36.41-27.49 22.13-46.27l-79.34-104.31c-1.2-1.59-2.53-3-3.96-4.26 12.21-10.76 31.62-9.34 41.96 4.26l79.34 104.31c14.44 19 .91 46.29-22.94 46.28z"/></g></g><path d="m429.59 162.009-28.01-.01h-.34v.01l.01 45.88-22.53-.01-23.72-.009-.01-45.89-28.35-.01c-15.49-.01-24.28-17.74-14.92-30.06l51.46-67.69c.23-.3.47-.6.72-.88-.01 0-.01 0 0-.01 7.68-8.95 21.81-8.64 29.08.91l51.51 67.72c9.37 12.329.59 30.049-14.9 30.049z" fill="#93ecdd"/><g fill="#00ddc4"><path d="m378.715 162.004h22.53v45.88h-22.53z"/><path d="m429.59 162.009-28.01-.01c15.27-.25 23.85-17.8 14.55-30.04l-51.51-67.72c-.23-.31-.48-.61-.72-.9-.01 0-.01 0 0-.01 7.68-8.95 21.81-8.64 29.08.91l51.51 67.72c9.37 12.33.59 30.05-14.9 30.05z"/></g><g><path d="m512 240.339v229.201c0 11.97-4.95 22.78-12.92 30.5l-56.81-15.04-186.28-49.31-242.87 64.55c-8.09-7.74-13.12-18.63-13.12-30.7v-229.201c0-12.14 5.1-23.09 13.27-30.84l242.73 70.731 186.77-54.43 55.95-16.3c8.18 7.729 13.28 18.699 13.28 30.839z" fill="#ffe0b7"/><path d="m512 240.339v229.201c0 11.97-4.95 22.78-12.92 30.5l-56.81-15.04c4.22-7.57 6.63-16.29 6.63-25.58v-208.95c0-8.91-2.22-17.31-6.13-24.67l55.95-16.3c8.18 7.729 13.28 18.699 13.28 30.839z" fill="#fdcb89"/><path d="m499.08 500.04c-7.64 7.4-18.05 11.96-29.53 11.96h-427.1c-11.37 0-21.71-4.48-29.33-11.76v-.01l167.23-163.44.38-.37.01-.01 150.74-.17.39.38 117.03 114.38z" fill="#ffa1ac"/><path d="m498.72 209.499v.01l-49.9 38.02-116.95 89.09-49.83 37.96c-15.32 11.89-36.76 11.89-52.09 0l-49.6-37.79-167.07-127.269-.01-.02c7.61-7.19 17.89-11.61 29.18-11.61h427.1c11.29 0 21.56 4.42 29.17 11.609z" fill="#fff4e5"/><path d="m396.32 197.89h73.23c11.29 0 21.56 4.42 29.17 11.61v.01l-49.9 38.02c-1.52-27.671-24.45-49.64-52.5-49.64z" fill="#ffe0b7"/><path d="m499.08 500.04c-7.64 7.4-18.05 11.96-29.53 11.96h-73.23c29.04 0 52.58-23.54 52.58-52.58v-8.42z" fill="#ff6e80"/><g><g><ellipse cx="177.623" cy="458.117" fill="#fff" rx="28.919" ry="23.03"/></g><g><ellipse cx="334.377" cy="458.117" fill="#fff" rx="28.92" ry="23.03"/></g><g fill="#495560"><path d="m173.212 433.058c0 4.143 3.358 7.5 7.5 7.5s7.5-3.358 7.5-7.5c0-3.455 2.811-6.266 6.265-6.266s6.265 2.811 6.265 6.266c0 4.143 3.358 7.5 7.5 7.5s7.5-3.358 7.5-7.5c0-11.726-9.54-21.266-21.265-21.266s-21.265 9.54-21.265 21.266z"/><path d="m296.257 433.058c0 4.143 3.358 7.5 7.5 7.5s7.5-3.358 7.5-7.5c0-3.455 2.811-6.266 6.265-6.266s6.265 2.811 6.265 6.266c0 4.143 3.358 7.5 7.5 7.5s7.5-3.358 7.5-7.5c0-11.726-9.54-21.266-21.265-21.266s-21.265 9.54-21.265 21.266z"/><path d="m264.947 444.219c-2.259 2.593-5.521 4.08-8.947 4.08s-6.688-1.487-8.947-4.08c-2.721-3.121-7.459-3.448-10.582-.727s-3.448 7.459-.727 10.582c5.109 5.862 12.492 9.225 20.255 9.225s15.146-3.362 20.255-9.225c2.721-3.123 2.396-7.862-.727-10.582-3.121-2.722-7.859-2.396-10.58.727z"/></g></g></g></g></svg>